PathFileType	4	(X/Y/Z)	TVC_4_Cal_03_0_static_RCNL2025.trc
DataRate	CameraRate	NumFrames	NumMarkers	Units	OrigDataRate	OrigDataStartFrame	OrigNumFrames
100	100	11	27	mm	100	86	228
Frame#	Time	R_Shoulder			L_Shoulder			C7			J_Notch			R_Elbow			L_Elbow			R_Wrist			L_Wrist			R_Asis			L_Asis			R_Psis			L_Psis			Sacral			Thoracic			Sternum			R_Thigh_Lateral			R_Knee_Lateral			R_Shank_Lateral			R_Ankle_Lateral			R_Heel			R_Toe			L_Thigh_Lateral			L_Knee_Lateral			L_Shank_Lateral			L_Ankle_Lateral			L_Heel			L_Toe		
		X1	Y1	Z1	X2	Y2	Z2	X3	Y3	Z3	X4	Y4	Z4	X5	Y5	Z5	X6	Y6	Z6	X7	Y7	Z7	X8	Y8	Z8	X9	Y9	Z9	X10	Y10	Z10	X11	Y11	Z11	X12	Y12	Z12	X13	Y13	Z13	X14	Y14	Z14	X15	Y15	Z15	X16	Y16	Z16	X17	Y17	Z17	X18	Y18	Z18	X19	Y19	Z19	X20	Y20	Z20	X21	Y21	Z21	X22	Y22	Z22	X23	Y23	Z23	X24	Y24	Z24	X25	Y25	Z25	X26	Y26	Z26	X27	Y27	Z27
86	0.85000000	-249.406570	1344.907715	-59.334007	-211.293625	1342.888428	-420.654358	-286.359039	1391.347778	-231.818283	-138.712204	1269.750854	-238.790039	-239.295090	1134.553345	147.469772	-200.476288	1106.675903	-618.863159	-162.633514	957.356171	273.203583	-88.463505	929.923157	-681.849335	-234.761108	882.887451	-43.053959	-246.779144	865.906555	-397.703979	-379.935852	919.921570	-165.521301	-380.128906	914.906860	-256.991608	-380.032379	917.414215	-211.256454	-363.020081	1148.309692	-233.765320	-106.407318	1076.320557	-227.254105	-259.292450	541.313293	-6.085163	-282.221802	423.769165	-47.437275	-301.835724	281.694489	22.157467	-311.919769	60.725929	-60.519081	-356.631226	52.006588	-109.162430	-179.186569	44.189247	-72.901718	-246.461151	518.036743	-419.380066	-262.724915	429.593231	-379.342133	-262.995026	316.452057	-428.847748	-294.017273	60.851986	-363.506348	-341.412079	49.694897	-319.378448	-158.115555	42.028015	-344.114136
87	0.86000000	-249.254135	1344.881592	-59.320873	-211.169846	1342.856567	-420.691559	-286.209167	1391.253662	-231.808212	-138.647263	1269.708618	-238.891724	-239.208832	1134.541016	147.419464	-200.308105	1106.629395	-618.873047	-162.580429	957.376526	273.143692	-88.253281	929.900269	-681.780731	-234.738983	882.864502	-43.029766	-246.798523	865.923645	-397.704590	-379.791779	919.910522	-165.498047	-380.021729	914.890015	-257.027313	-379.906754	917.400269	-211.262680	-362.859070	1148.300293	-233.775558	-106.380035	1076.343994	-227.293503	-259.166443	541.594788	-6.070889	-282.171844	423.789612	-47.408810	-301.875366	281.601318	22.161695	-311.887878	60.773300	-60.552635	-356.631744	52.007763	-109.162132	-179.187439	44.203434	-72.908287	-246.387207	518.015198	-419.335480	-262.722473	429.579224	-379.364777	-262.791901	316.502777	-429.258270	-293.972595	60.750156	-363.481079	-341.409149	49.694218	-319.371277	-158.130188	41.980850	-344.094391
88	0.87000000	-249.107956	1344.931152	-59.437443	-210.937119	1342.851440	-420.727722	-286.070526	1391.334351	-231.939240	-138.499985	1269.760498	-238.831039	-239.285767	1134.676636	147.574646	-200.090408	1106.635498	-618.915649	-162.483673	957.404846	273.127655	-88.109303	929.941620	-681.847534	-234.609024	882.858215	-43.022713	-246.625046	865.938354	-397.728546	-379.778412	919.979309	-165.509415	-379.959167	914.881348	-256.995575	-379.868790	917.430328	-211.252495	-362.785156	1148.285278	-233.746643	-106.344475	1076.265625	-227.385986	-259.264282	541.610413	-6.100832	-282.150818	423.777130	-47.422592	-301.809448	281.664581	22.104565	-311.925537	60.697456	-60.534325	-356.635925	51.975216	-109.158653	-179.178192	44.202534	-72.930481	-246.321671	518.007141	-419.326965	-262.694855	429.601654	-379.353577	-263.064636	316.340729	-429.035065	-293.975342	60.729675	-363.502777	-341.406708	49.684933	-319.344635	-158.090973	41.970146	-344.037903
89	0.88000000	-248.965805	1344.937256	-59.418137	-210.768265	1342.840332	-420.736969	-285.875793	1391.285034	-231.954544	-138.313110	1269.718140	-238.869476	-238.992004	1134.610962	147.353836	-199.979950	1106.626343	-618.908630	-162.439720	957.449127	273.160629	-87.933575	929.954224	-681.781433	-234.548386	882.821472	-43.065388	-246.590073	865.970642	-397.762024	-379.644867	919.929688	-165.487869	-379.871674	914.932129	-257.054993	-379.758270	917.430908	-211.271431	-362.671112	1148.320801	-233.811798	-106.164841	1076.265137	-227.454193	-259.388855	541.516907	-6.234952	-282.145203	423.752167	-47.404202	-301.848206	281.683929	22.142263	-311.935120	60.714657	-60.539814	-356.678375	51.984062	-109.104462	-179.185898	44.186733	-72.911064	-246.335724	518.013245	-419.317474	-262.707458	429.587097	-379.379883	-262.950836	316.503998	-428.786133	-293.979248	60.803524	-363.488617	-341.428406	49.642853	-319.336792	-158.096695	41.983292	-344.048981
90	0.89000000	-248.865311	1345.003784	-59.472191	-210.650436	1342.875854	-420.775665	-285.722961	1391.281006	-231.933884	-138.175507	1269.716553	-238.846405	-238.907333	1134.620972	147.326004	-199.799591	1106.655640	-618.930176	-162.394661	957.491180	273.145172	-87.702579	929.956299	-681.819397	-234.483398	882.887268	-43.104744	-246.558487	866.002136	-397.749298	-379.621124	919.955444	-165.525055	-379.809204	915.041138	-257.085785	-379.715164	917.498291	-211.305420	-362.597748	1148.359009	-233.874100	-106.123756	1076.275879	-227.437805	-259.442627	541.568420	-6.243595	-282.154633	423.780090	-47.432102	-301.885834	281.705902	22.172756	-311.891235	60.696213	-60.573666	-356.651550	52.064281	-109.134560	-179.225479	44.218258	-72.936783	-246.337372	518.009949	-419.330322	-262.688507	429.598236	-379.397980	-262.899048	316.600464	-428.884094	-294.044128	60.888916	-363.462738	-341.467041	49.731590	-319.292480	-158.173218	42.030361	-344.049377
91	0.90000000	-248.700058	1344.982300	-59.473980	-210.491776	1342.865356	-420.768280	-285.588745	1391.309448	-232.036423	-137.961395	1269.758667	-238.858078	-238.702698	1134.748901	147.289658	-199.645905	1106.650879	-618.935669	-162.234001	957.538635	273.166237	-87.489098	929.978790	-681.856171	-234.402969	882.863159	-43.146824	-246.465775	865.982910	-397.743073	-379.518982	919.990784	-165.609924	-379.734344	915.055786	-257.118805	-379.626663	917.523285	-211.364365	-362.501892	1148.390381	-233.941315	-105.958954	1076.280396	-227.488815	-259.434448	541.580750	-6.270888	-282.145905	423.806152	-47.487171	-301.764984	281.663971	22.084593	-311.857086	60.615326	-60.623711	-356.644867	52.085037	-109.140427	-179.179855	44.247700	-72.894920	-246.329224	518.018127	-419.372742	-262.700806	429.639923	-379.398560	-262.813385	316.621704	-428.869690	-294.090088	60.861004	-363.418121	-341.450439	49.697861	-319.316650	-158.150543	42.024925	-344.070526
92	0.91000000	-248.591766	1345.041870	-59.513470	-210.300613	1342.891235	-420.809570	-285.436981	1391.328735	-232.049164	-137.775726	1269.712402	-238.894821	-238.598694	1134.801270	147.236557	-199.428635	1106.633911	-618.937744	-162.135689	957.596558	273.092262	-87.206673	929.976440	-681.817322	-234.335327	882.903809	-43.173145	-246.382080	865.945007	-397.810944	-379.435059	920.011292	-165.650162	-379.639374	915.084839	-257.107574	-379.537216	917.548065	-211.378868	-362.364807	1148.439209	-233.928604	-105.811935	1076.290771	-227.440155	-259.344391	541.545105	-6.239375	-282.121033	423.819977	-47.483051	-301.722595	281.771942	22.066698	-312.026093	60.956123	-60.419086	-356.651245	52.050388	-109.134346	-179.176895	44.250217	-72.900894	-246.261292	518.066711	-419.411774	-262.633606	429.603729	-379.471375	-262.814667	316.593628	-428.864807	-293.995148	60.839680	-363.451904	-341.430481	49.769207	-319.341736	-158.082687	42.057266	-344.063843
93	0.92000000	-248.440399	1345.101562	-59.621071	-210.138214	1342.912720	-420.808594	-285.300201	1391.346924	-232.150772	-137.603485	1269.753174	-238.958038	-238.445450	1134.840820	147.210999	-199.242462	1106.674438	-618.970642	-162.051216	957.574738	273.037933	-86.979309	929.968445	-681.900940	-234.322464	882.918030	-43.193062	-246.293060	865.905884	-397.904541	-379.431854	920.097107	-165.660461	-379.547485	915.191956	-257.170044	-379.489670	917.644531	-211.415253	-362.260651	1148.438477	-233.965149	-105.593437	1076.362671	-227.443832	-259.154114	541.650146	-6.157162	-282.103699	423.793213	-47.516739	-301.725311	281.739777	22.098940	-311.901520	60.832424	-60.531471	-356.645111	52.080982	-109.138908	-179.181793	44.237465	-72.901115	-246.223587	518.069946	-419.453217	-262.548462	429.558319	-379.458344	-262.783813	316.545105	-429.022522	-293.948669	60.858192	-363.486664	-341.370728	49.726883	-319.401031	-158.106003	42.045471	-344.093994
94	0.93000000	-248.315643	1345.087769	-59.630520	-209.942856	1342.917969	-420.915771	-285.038940	1391.301636	-232.265686	-137.435913	1269.729248	-238.924286	-238.642532	1134.906372	147.416840	-199.010880	1106.636353	-618.991516	-161.845261	957.607788	272.965065	-86.844795	929.934631	-681.846558	-234.262543	882.899292	-43.251186	-246.207382	865.910706	-397.849243	-379.329315	920.065063	-165.732895	-379.422180	915.063843	-257.263367	-379.375748	917.564453	-211.498131	-362.105072	1148.415527	-234.126526	-105.554520	1076.375366	-227.428101	-259.216919	541.593323	-6.199140	-282.105743	423.814484	-47.548866	-301.766785	281.745575	22.052431	-311.876892	60.755108	-60.625149	-356.672394	52.069767	-109.111618	-179.185318	44.228851	-72.870911	-246.163086	518.020447	-419.470367	-262.507599	429.583862	-379.483276	-262.722473	316.479736	-429.090973	-293.958862	60.824352	-363.481323	-341.420624	49.766472	-319.330414	-158.099640	42.055580	-344.099670
95	0.94000000	-248.209167	1345.089722	-59.680981	-209.793762	1342.858398	-420.955688	-284.944214	1391.325073	-232.272934	-137.213058	1269.752686	-239.033936	-238.442764	1134.843140	147.241669	-198.800034	1106.570190	-618.978455	-161.744286	957.580475	272.895370	-86.501072	929.963501	-681.932587	-234.236023	882.866638	-43.256512	-246.127182	865.889832	-397.917633	-379.245453	920.041260	-165.777649	-379.334961	915.039795	-257.332428	-379.290207	917.540527	-211.555038	-362.036652	1148.395020	-234.159393	-105.461792	1076.354126	-227.386459	-259.309998	541.550476	-6.318986	-282.105865	423.778351	-47.574429	-301.797852	281.767395	21.987871	-311.899200	60.764030	-60.618027	-356.695648	52.078537	-109.184074	-179.176361	44.200855	-72.899612	-246.131470	518.020447	-419.468903	-262.506348	429.606964	-379.484375	-262.702820	316.533508	-429.052643	-294.022156	60.876049	-363.491455	-341.375458	49.695095	-319.385223	-158.101578	42.037315	-344.130737
96	0.95000000	-248.124176	1345.075195	-59.740433	-209.678574	1342.845825	-420.975403	-284.895355	1391.282349	-232.374542	-137.082336	1269.721313	-238.938950	-238.528687	1134.928101	147.329361	-198.626007	1106.583130	-619.004272	-161.572632	957.563263	272.819275	-86.373631	929.937378	-681.923004	-234.231262	882.869629	-43.296135	-246.032471	865.823486	-397.893036	-379.240387	920.093872	-165.815384	-379.304321	915.081848	-257.381989	-379.272354	917.587860	-211.598686	-361.926819	1148.432739	-234.277039	-105.337944	1076.358154	-227.348007	-259.398529	541.539246	-6.295939	-282.080261	423.800964	-47.630074	-301.786530	281.741302	22.025267	-311.908539	60.737125	-60.647453	-356.629059	52.095348	-109.168816	-179.176819	44.202759	-72.912758	-246.104553	518.005127	-419.437500	-262.510681	429.585266	-379.486420	-262.692017	316.498932	-429.098999	-294.041748	60.779037	-363.498718	-341.404114	49.688404	-319.380890	-158.136444	41.962273	-344.079346
